<svg width="32" height="32" viewBox="0 0 32 32" fill="none" xmlns="http://www.w3.org/2000/svg">
<g clip-path="url(#clip0_1_5)">
<rect width="32" height="32" rx="16" fill="#2383E2"/>
<path d="M4.38759 22.4598C4.27685 22.4598 4.18456 22.4228 4.11074 22.349C4.03691 22.2629 4 22.1706 4 22.0722C4 22.0106 4.00615 21.9553 4.01846 21.9061L8.41109 10.0386C8.448 9.90322 8.52183 9.78633 8.63257 9.6879C8.7433 9.58946 8.89711 9.54025 9.09398 9.54025H11.4564C11.6533 9.54025 11.8071 9.58946 11.9178 9.6879C12.0286 9.78633 12.1024 9.90322 12.1393 10.0386L16.5319 21.9061C16.5442 21.9553 16.5504 22.0106 16.5504 22.0722C16.5504 22.1706 16.5135 22.2629 16.4396 22.349C16.3658 22.4228 16.2735 22.4598 16.1628 22.4598H14.2433C14.0588 22.4598 13.9234 22.4167 13.8373 22.3306C13.7512 22.2444 13.6958 22.1645 13.6712 22.0906L12.8775 20.0235H7.67283L6.8792 22.0906C6.8546 22.1645 6.79923 22.2444 6.7131 22.3306C6.62697 22.4167 6.49162 22.4598 6.30705 22.4598H4.38759ZM8.35572 17.6426H12.1762L10.2752 12.3272L8.35572 17.6426Z" fill="white"/>
<path d="M22.5923 22.6443C21.4111 22.6443 20.4206 22.4721 19.6208 22.1275C18.8333 21.783 18.2365 21.3339 17.8305 20.7802C17.4245 20.2265 17.2091 19.6359 17.1845 19.0084C17.1845 18.91 17.2214 18.8238 17.2953 18.75C17.3691 18.6639 17.4614 18.6208 17.5721 18.6208H19.547C19.7069 18.6208 19.83 18.6577 19.9161 18.7316C20.0022 18.7931 20.0822 18.8731 20.156 18.9715C20.2421 19.1807 20.3775 19.3837 20.5621 19.5805C20.7589 19.7774 21.0235 19.9435 21.3557 20.0789C21.6879 20.2019 22.1001 20.2634 22.5923 20.2634C23.392 20.2634 23.9888 20.1342 24.3825 19.8759C24.7886 19.6175 24.9916 19.2668 24.9916 18.8238C24.9916 18.5039 24.8809 18.2455 24.6594 18.0487C24.4502 17.8518 24.1118 17.6734 23.6443 17.5134C23.189 17.3535 22.58 17.1812 21.8171 16.9966C20.8943 16.7998 20.1068 16.5475 19.4547 16.2399C18.8148 15.92 18.3288 15.514 17.9966 15.0218C17.6767 14.5173 17.5167 13.896 17.5167 13.1577C17.5167 12.4195 17.7198 11.7673 18.1258 11.2013C18.5318 10.623 19.104 10.1739 19.8423 9.85401C20.5805 9.52179 21.4603 9.35568 22.4815 9.35568C23.3059 9.35568 24.0319 9.46642 24.6594 9.6879C25.2992 9.90938 25.8283 10.1985 26.2466 10.5554C26.6773 10.9122 27.0034 11.2936 27.2248 11.6997C27.4463 12.1057 27.5632 12.4994 27.5755 12.8809C27.5755 12.9793 27.5386 13.0716 27.4648 13.1577C27.3909 13.2315 27.2987 13.2684 27.1879 13.2684H25.1208C24.9978 13.2684 24.887 13.2438 24.7886 13.1946C24.6901 13.1454 24.6102 13.0593 24.5486 12.9362C24.4748 12.6163 24.2533 12.3395 23.8842 12.1057C23.5274 11.8596 23.0598 11.7366 22.4815 11.7366C21.8786 11.7366 21.3987 11.8473 21.0419 12.0688C20.6974 12.2903 20.5251 12.6286 20.5251 13.0839C20.5251 13.3792 20.6113 13.6314 20.7835 13.8406C20.9681 14.0375 21.2696 14.2159 21.6879 14.3758C22.1185 14.5235 22.6845 14.6896 23.3859 14.8742C24.4687 15.0956 25.3484 15.3602 26.0252 15.6678C26.7019 15.9754 27.2002 16.3753 27.5201 16.8675C27.84 17.3473 28 17.9564 28 18.6946C28 19.519 27.7662 20.2265 27.2987 20.8171C26.8434 21.4077 26.2097 21.863 25.3976 22.1829C24.5979 22.4905 23.6627 22.6443 22.5923 22.6443Z" fill="white"/>
</g>
<defs>
<clipPath id="clip0_1_5">
<rect width="32" height="32" fill="white"/>
</clipPath>
</defs>
</svg>
